<?xml version="1.0" encoding="iso-8859-1"?>
<!-- Generator: Adobe Illustrator 19.0.0, SVG Export Plug-In . SVG Version: 6.00 Build 0)  -->
<svg version="1.1" id="Layer_1" xmlns="http://www.w3.org/2000/svg" xmlns:xlink="http://www.w3.org/1999/xlink" x="0px" y="0px"
	 viewBox="0 0 512.001 512.001" style="enable-background:new 0 0 512.001 512.001;" xml:space="preserve">
<g>
	<rect x="206.747" y="458.898" style="fill:#2BBFA3;" width="98.214" height="44.287"/>
	<rect x="206.747" y="431.804" style="fill:#2BBFA3;" width="98.214" height="27.094"/>
</g>
<g>
	<polygon style="fill:#D6400B;" points="397.004,425.119 397.004,446.467 337.929,446.467 337.929,420.502 397.004,420.502 	"/>
	<polygon style="fill:#D6400B;" points="173.787,420.502 173.787,446.467 114.723,446.467 114.723,425.119 114.723,420.502 	"/>
</g>
<g>
	<path style="fill:#F4550F;" d="M397.004,401.232v19.27h-59.075c0-9.065-3.364-17.803-9.438-24.531
		c-3.037-3.364-5.385-7.225-6.988-11.391c-1.603-4.154-2.438-8.613-2.438-13.14v-72.645c11.345,3.116,21.912,8.083,31.395,14.529
		C378.547,332.448,397.004,364.7,397.004,401.232z"/>
	<path style="fill:#F4550F;" d="M258.127,315.796c11.447-0.226,22.443-2.28,32.715-5.87v40.595
		c0,19.327-15.658,34.985-34.985,34.985c-19.315,0-34.985-15.658-34.985-34.985v-40.595c10.95,3.827,22.725,5.904,34.985,5.904
		C256.614,315.83,257.371,315.819,258.127,315.796z"/>
	<path style="fill:#F4550F;" d="M192.651,298.795v72.645c0,4.527-0.835,8.986-2.438,13.14c-1.603,4.166-3.962,8.026-6.999,11.391
		c-6.062,6.728-9.426,15.466-9.426,24.531h-59.064v-19.27c0-36.531,18.435-68.784,46.533-87.907
		C170.739,306.878,181.305,301.911,192.651,298.795z"/>
</g>
<g>
	<polygon style="fill:#F2F2F2;" points="173.787,446.467 173.787,503.182 171.213,503.182 114.723,503.182 114.723,446.467 	"/>
	<polygon style="fill:#F2F2F2;" points="397.004,446.467 397.004,503.182 340.503,503.182 337.929,503.182 337.929,446.467 	"/>
</g>
<g>
	<path style="fill:#E6E6E6;" d="M149.696,214.67h-0.011c-13.919-4.064-24.091-16.922-24.091-32.151
		c0-15.071,9.968-27.827,23.673-32.016c0.09,0.214,0.203,0.44,0.305,0.655v58.375C149.572,211.249,149.617,212.965,149.696,214.67z"
		/>
	<path style="fill:#E6E6E6;" d="M362.449,150.492c13.705,4.2,23.673,16.956,23.673,32.027c0,15.229-10.171,28.087-24.091,32.151
		h-0.011c0.079-1.705,0.124-3.421,0.124-5.136v-58.387C362.245,150.932,362.347,150.717,362.449,150.492z"/>
</g>
<path style="fill:#F4550F;" d="M362.449,150.492c-0.102-0.034-0.203-0.056-0.305-0.09v0.745
	c-4.166,8.309-14.992,12.339-23.921,6.819c-44.806-27.703-100.495-30.751-147.694-9.133c-5.814,2.675-11.515,5.712-17.035,9.133
	c-8.93,5.52-19.744,1.501-23.921-6.807v-0.756c-0.102,0.034-0.203,0.056-0.305,0.102c-1.095-2.438-1.614-5.204-1.389-8.196
	l1.693-35.628c12.068-2.946,24.226-5.385,36.452-7.315c1.501-0.237,3.003-0.463,4.504-0.689c21.664-3.195,43.497-4.787,65.341-4.787
	c23.346,0,46.703,1.829,69.834,5.475c12.215,1.93,24.373,4.369,36.441,7.315l1.682,35.628
	C364.063,145.287,363.532,148.064,362.449,150.492z"/>
<g>
	<path style="fill:#2BBFA3;" d="M173.787,446.467v-25.965c0-9.065,3.364-17.803,9.426-24.531c3.037-3.364,5.396-7.225,6.999-11.391
		c1.603-4.154,2.438-8.613,2.438-13.14v-72.645c1.072-0.305,2.145-0.587,3.229-0.847c0.226-0.068,0.463-0.113,0.7-0.169
		c3.612,2.427,7.394,4.651,11.3,6.627c4.177,2.122,8.512,3.974,12.994,5.52v40.595c0,19.327,15.669,34.985,34.985,34.985
		c19.327,0,34.985-15.658,34.985-34.985v-40.595c4.482-1.547,8.817-3.398,12.994-5.52c3.906-1.976,7.688-4.199,11.3-6.627
		c0.226,0.056,0.474,0.102,0.7,0.169c1.084,0.26,2.156,0.542,3.229,0.847v72.645c0,4.527,0.835,8.986,2.438,13.14
		c1.603,4.166,3.951,8.026,6.988,11.391c6.073,6.728,9.438,15.466,9.438,24.531v25.965v56.716h-32.964v-44.287v-27.094h-98.214
		v27.094v44.287h-32.964L173.787,446.467L173.787,446.467z"/>
	<path style="fill:#2BBFA3;" d="M358.644,61.071l3.511,45.608h-0.011c-12.068-2.946-24.226-5.385-36.441-7.315L323.75,61.06
		c-0.903-17.837-9.392-32.693-20.93-36.621L255.892,8.476l71.064,15.963C344.409,28.367,357.267,43.224,358.644,61.071z"/>
</g>
<g>
	<path style="fill:#35D8B9;" d="M323.75,61.06l1.953,38.304c-23.131-3.646-46.488-5.475-69.834-5.475v-0.756V8.465l0.023,0.011
		l46.928,15.963C314.357,28.367,322.847,43.224,323.75,61.06z"/>
	<path style="fill:#35D8B9;" d="M255.869,93.132v0.756c-23.357,0-46.703,1.818-69.845,5.475l1.953-38.304
		c0.914-17.837,9.404-32.693,20.93-36.621l46.951-15.974h0.011V93.132z"/>
</g>
<path style="fill:#2BBFA3;" d="M255.858,8.465l-46.951,15.974c-11.526,3.929-20.015,18.785-20.93,36.621l-1.953,38.304
	c-12.226,1.93-24.384,4.369-36.452,7.315l3.511-45.608c1.377-17.848,14.224-32.704,31.688-36.633L255.858,8.465z"/>
<path style="fill:#F2F2F2;" d="M362.144,151.146v58.387c0,1.716-0.045,3.432-0.124,5.136c-1.626,34.319-19.541,64.381-46.183,82.624
	c-0.226,0.169-0.474,0.327-0.7,0.485c-3.612,2.427-7.394,4.651-11.3,6.627c-4.177,2.122-8.512,3.974-12.994,5.52
	c-10.273,3.59-21.268,5.645-32.715,5.87c-0.756,0.023-1.513,0.034-2.269,0.034c-12.26,0-24.034-2.077-34.985-5.904
	c-4.482-1.547-8.817-3.398-12.994-5.52c-3.906-1.976-7.688-4.199-11.3-6.627c-0.237-0.158-0.474-0.316-0.7-0.485
	c-26.642-18.243-44.558-48.306-46.183-82.624c-0.079-1.705-0.124-3.421-0.124-5.136v-58.375c4.177,8.309,14.992,12.328,23.921,6.807
	c50.338-31.124,114.391-31.124,164.729,0C347.152,163.485,357.978,159.455,362.144,151.146z"/>
<g>
	<path style="fill:#CCCCCC;" d="M262.643,309.926c4.561,1.603,9.268,2.89,14.089,3.85c-6.028,1.208-12.249,1.897-18.604,2.021
		c-0.756,0.023-1.513,0.034-2.269,0.034c-12.26,0-24.034-2.077-34.985-5.904c-4.482-1.547-8.817-3.398-12.994-5.52
		c-3.906-1.976-7.688-4.199-11.3-6.627c-0.237-0.158-0.474-0.316-0.7-0.485c-26.642-18.243-44.558-48.306-46.183-82.624
		c-0.079-1.705-0.124-3.421-0.124-5.136v-58.375c4.177,8.309,14.992,12.328,23.921,6.807c5.78-3.579,11.741-6.74,17.848-9.494
		v61.062c0,1.716,0.045,3.432,0.124,5.137c1.626,34.319,19.541,64.381,46.183,82.624c0.226,0.169,0.463,0.327,0.7,0.485
		c3.612,2.427,7.394,4.651,11.3,6.627C253.826,306.529,258.16,308.38,262.643,309.926z"/>
	<path style="fill:#CCCCCC;" d="M362.144,151.146v29.351c-4.166,8.309-14.992,12.339-23.921,6.819
		c-44.806-27.703-100.495-30.751-147.694-9.133c-5.814,2.675-11.515,5.712-17.035,9.133c-8.93,5.52-19.744,1.501-23.921-6.807
		v-29.351c4.177,8.309,14.992,12.328,23.921,6.807c50.338-31.124,114.391-31.124,164.729,0
		C347.152,163.485,357.978,159.455,362.144,151.146z"/>
</g>
<path style="fill:#D6400B;" d="M173.595,102.773l16.933,46.059c-5.814,2.675-11.515,5.712-17.035,9.133
	c-8.93,5.52-19.744,1.501-23.921-6.807v-0.756c-0.102,0.034-0.203,0.056-0.305,0.102c-1.095-2.438-1.614-5.204-1.389-8.196
	l1.693-35.628c12.068-2.946,24.226-5.385,36.452-7.315C187.526,99.127,172.094,102.999,173.595,102.773z"/>
<g>
	<path style="fill:#333333;" d="M199.009,190.181h34.324c3.152,0,5.717,2.565,5.717,5.717v20.246c0,4.676,3.791,8.467,8.467,8.467
		c4.676,0,8.467-3.791,8.467-8.467v-20.246c0-12.489-10.161-22.65-22.65-22.65h-34.324c-4.676,0-8.467,3.791-8.467,8.467
		S194.333,190.181,199.009,190.181z"/>
	<path style="fill:#333333;" d="M283.879,190.181h28.824c4.677,0,8.467-3.791,8.467-8.467s-3.79-8.467-8.467-8.467h-28.824
		c-4.677,0-8.467,3.791-8.467,8.467S279.202,190.181,283.879,190.181z"/>
	<path style="fill:#333333;" d="M270.266,250.111h-28.824c-4.676,0-8.467,3.791-8.467,8.467c0,4.676,3.791,8.467,8.467,8.467h28.824
		c4.677,0,8.467-3.791,8.467-8.467C278.733,253.902,274.943,250.111,270.266,250.111z"/>
	<path style="fill:#333333;" d="M413.794,494.717h-8.329V401.23c0-38.012-18.783-73.489-50.243-94.901
		c-7.022-4.779-14.475-8.722-22.27-11.809c21.079-19.131,34.347-45.439,37.111-73.85c14.688-6.743,24.521-21.666,24.521-38.156
		c0-15.631-8.855-29.885-22.304-37.062c0.085-1.206-5.197-85.035-5.197-85.035c-1.67-21.688-17.052-39.465-38.275-44.235
		l-71.09-15.976c-1.223-0.274-2.492-0.274-3.713,0l-71.09,15.976c-21.223,4.77-36.606,22.546-38.276,44.235
		c0,0-5.295,83.831-5.209,85.038c-13.446,7.178-22.3,21.431-22.3,37.061c0,16.488,9.83,31.411,24.517,38.153
		c2.765,28.411,16.033,54.721,37.113,73.853c-7.795,3.088-15.248,7.03-22.271,11.809c-31.452,21.407-50.23,56.884-50.23,94.901
		v93.486h-8.052c-4.676,0-8.467,3.791-8.467,8.467s3.791,8.467,8.467,8.467h16.519h89.623c0.761,0.225,1.565,0.35,2.399,0.35h98.214
		c0.834,0,1.638-0.125,2.399-0.35H397h16.796c4.677,0,8.467-3.791,8.467-8.467S418.471,494.717,413.794,494.717z M296.495,450.431
		h-81.281v-10.16h81.281V450.431z M215.214,494.717v-27.352h81.281v27.352H215.214z M313.428,458.898v-27.094
		c0-4.676-3.79-8.467-8.467-8.467h-98.214c-4.676,0-8.467,3.791-8.467,8.467v27.094v35.819h-16.026v-74.214
		c0-6.98,2.575-13.678,7.25-18.859c7.487-8.299,11.61-19.024,11.61-30.201V310.4c3.672,1.998,7.441,3.786,11.289,5.362v34.761
		c0,23.96,19.493,43.451,43.451,43.451s43.451-19.493,43.451-43.451V315.76c3.848-1.576,7.617-3.365,11.292-5.363v61.046
		c0,11.177,4.123,21.903,11.61,30.201c4.676,5.183,7.251,11.881,7.251,18.859v74.214h-16.03L313.428,458.898L313.428,458.898z
		 M165.321,438.001h-42.128v-9.031h42.128V438.001z M229.337,321.197c8.621,2.039,17.508,3.097,26.52,3.097
		c9.01,0,17.893-1.057,26.516-3.097v29.327c0,14.623-11.895,26.518-26.518,26.518c-14.623,0-26.518-11.896-26.518-26.518V321.197z
		 M295.366,299.045c-9.119,4.03-18.803,6.642-28.775,7.731v-22.857c0-4.676-3.79-8.467-8.467-8.467
		c-4.676,0-8.467,3.791-8.467,8.467v23.235c-11.577-0.725-22.829-3.471-33.314-8.105v-29.467c0-13.881,11.292-25.174,25.174-25.174
		h28.674c13.881,0,25.174,11.292,25.174,25.174v29.463H295.366z M346.392,428.97h42.14v9.031h-42.14V428.97z M388.532,401.23v10.806
		h-42.943c-1.534-8.045-5.238-15.562-10.808-21.736c-4.675-5.182-7.25-11.879-7.25-18.859v-60.838
		c6.344,2.58,12.425,5.817,18.164,9.724C372.518,338.584,388.532,368.828,388.532,401.23z M156.324,142.968
		c0.007-0.086,0.012-0.172,0.016-0.257l1.384-29.259c64.345-14.728,131.921-14.728,196.266,0l1.385,29.259
		c0.003,0.086,0.009,0.172,0.016,0.257c0.251,3.215-1.246,6.138-4.004,7.819c-1.313,0.8-4.793,2.401-8.709-0.02
		c-26.038-16.098-56.06-24.607-86.819-24.607s-60.781,8.509-86.82,24.607c-3.917,2.423-7.394,0.821-8.708,0.02
		C157.57,149.105,156.073,146.183,156.324,142.968z M264.333,20.29l35.756,12.165c8.098,2.757,14.492,14.968,15.204,29.038
		l1.429,28.034c-17.369-2.324-34.869-3.642-52.388-3.965V20.29H264.333z M211.63,32.456l35.769-12.167v65.273
		c-17.522,0.322-35.025,1.639-52.398,3.962l1.429-28.029C197.152,47.425,203.546,35.212,211.63,32.456z M370.612,199.856v-34.683
		c4.385,4.57,7.04,10.743,7.04,17.34C377.651,189.118,374.997,195.289,370.612,199.856z M350.202,61.717l2.629,34.139
		c-6.314-1.37-12.657-2.604-19.022-3.703l-1.606-31.519c-0.54-10.661-3.475-20.422-8.124-28.159l1.017,0.229
		C339.017,35.832,349.105,47.492,350.202,61.717z M161.524,61.717c1.095-14.226,11.184-25.886,25.106-29.014l1.023-0.23
		c-4.649,7.736-7.586,17.497-8.134,28.157l-1.608,31.52c-6.364,1.098-12.705,2.331-19.017,3.702L161.524,61.717z M141.101,165.179
		v34.673c-4.382-4.568-7.036-10.737-7.036-17.338C134.064,175.919,136.718,169.747,141.101,165.179z M158.034,209.538v-41.476
		c6.651,1.824,13.835,0.861,19.907-2.892c23.361-14.442,50.305-22.077,77.916-22.077s54.554,7.634,77.916,22.077
		c4.087,2.526,8.678,3.79,13.27,3.79c2.231,0,4.463-0.303,6.637-0.899v41.477c0,31.791-15.444,61.533-41.379,79.889v-19.845
		c0-23.218-18.889-42.108-42.108-42.108h-28.674c-23.218,0-42.108,18.889-42.108,42.108v19.843
		C173.476,271.067,158.034,241.326,158.034,209.538z M166.017,320.328c5.74-3.906,11.82-7.145,18.164-9.724v60.838
		c0,6.98-2.575,13.677-7.25,18.859c-5.569,6.173-9.273,13.69-10.807,21.736h-42.931V401.23
		C123.193,368.823,139.202,338.579,166.017,320.328z M123.193,454.934h42.128v39.782h-42.128V454.934z M346.392,494.717v-39.782
		h42.14v39.782H346.392z"/>
	<circle style="fill:#333333;" cx="212.223" cy="205.46" r="8.467"/>
	<circle style="fill:#333333;" cx="299.656" cy="205.46" r="8.467"/>
</g>
<g>
</g>
<g>
</g>
<g>
</g>
<g>
</g>
<g>
</g>
<g>
</g>
<g>
</g>
<g>
</g>
<g>
</g>
<g>
</g>
<g>
</g>
<g>
</g>
<g>
</g>
<g>
</g>
<g>
</g>
</svg>
